PathFileType	4	(X/Y/Z)	 s03c0403.trc
DataRate	CameraRate	NumFrames	NumMarkers	Units	OrigDataRate	OrigDataStartFrame	OrigNumFrames
200	200	4	52	mm	200	1751	2000
Frame#	Time	racr			lacr			c7			jug			rlel			rdr			llel			ldr			s2			lic			ric			lasi			rasi			rpsi			lpsi			rgt			lgt			rth1			rth2			rth3			rth4			rlfc			rmfc			rsh1			rsh2			rsh3			rsh4			rlmal			rmmal			rcal			rtoe			rmt5			rmt1			lth1			lth2			lth4			lth3			llfc			lmfc			lsh1			lsh2			lsh3			lsh4			llmal			lmmal			lcal			ltoe			lmt1			lmt5			SBIKE			LBIKE			RBIKE			
		X1	Y1	Z1	X2	Y2	Z2	X3	Y3	Z3	X4	Y4	Z4	X5	Y5	Z5	X6	Y6	Z6	X7	Y7	Z7	X8	Y8	Z8	X9	Y9	Z9	X10	Y10	Z10	X11	Y11	Z11	X12	Y12	Z12	X13	Y13	Z13	X14	Y14	Z14	X15	Y15	Z15	X16	Y16	Z16	X17	Y17	Z17	X18	Y18	Z18	X19	Y19	Z19	X20	Y20	Z20	X21	Y21	Z21	X22	Y22	Z22	X23	Y23	Z23	X24	Y24	Z24	X25	Y25	Z25	X26	Y26	Z26	X27	Y27	Z27	X28	Y28	Z28	X29	Y29	Z29	X30	Y30	Z30	X31	Y31	Z31	X32	Y32	Z32	X33	Y33	Z33	X34	Y34	Z34	X35	Y35	Z35	X36	Y36	Z36	X37	Y37	Z37	X38	Y38	Z38	X39	Y39	Z39	X40	Y40	Z40	X41	Y41	Z41	X42	Y42	Z42	X43	Y43	Z43	X44	Y44	Z44	X45	Y45	Z45	X46	Y46	Z46	X47	Y47	Z47	X48	Y48	Z48	X49	Y49	Z49	X50	Y50	Z50	X51	Y51	Z51	X52	Y52	Z52	
1751	8.7550	626.437536	1454.327498	1.545259	614.864240	1493.733101	-323.430514	558.285661	1548.473654	-150.061967	587.180504	1377.102790	-168.843453	567.297886	1183.562232	106.493965	741.176274	983.422123	2.253502	599.238726	1237.909434	-452.655143	744.799750	977.367067	-430.060875	37.307938	1262.461450	-153.594746	207.978943	1289.811704	-346.869359	224.572395	1253.777727	20.609036	216.163138	1213.999430	-311.125934	237.732601	1177.323297	-31.226824	72.499654	1303.279731	-102.638322	71.885805	1313.139955	-186.112190	140.414490	1144.833467	23.912759	146.317482	1220.626921	-364.561382	173.455563	990.365715	34.267726	217.630540	913.467678	27.410589	220.928633	829.343724	9.495892	252.292044	924.852598	20.201718	241.256037	708.781446	-32.518594	259.311995	699.491909	-143.813755	193.280735	545.577025	-14.811580	200.115391	457.339918	-29.736073	160.536372	378.659460	-39.603390	231.299645	455.082450	-53.420638	126.909875	251.339956	-70.871174	156.652577	266.995948	-148.728632	64.022891	219.567456	-108.782378	369.099294	156.397480	-107.925546	248.048531	161.922323	-39.620160	278.359824	177.455142	-152.531379	236.531303	1138.020121	-429.349053	314.569039	1111.360993	-457.119331	338.253865	1135.320752	-441.508471	367.585423	1044.415738	-485.181421	476.933598	962.240451	-508.114506	507.687518	935.922098	-383.678096	356.749450	837.115489	-501.751812	321.039522	764.589146	-471.946265	246.684318	718.203316	-449.565334	348.837081	745.868401	-452.351869	164.761555	626.513703	-410.915394	208.015546	637.003208	-328.259326	90.732238	610.268124	-356.090722	375.439521	494.991730	-354.705787	285.837875	523.518739	-310.859810	254.693602	509.997698	-426.952702	-211.467400	947.294958	-227.303657	-4.457279	84.195696	-432.856237	-8.782827	80.979481	-32.504309	
1752	8.7600	625.832411	1454.141926	1.860569	614.302797	1493.647683	-323.198622	557.661299	1548.385337	-149.764231	586.601176	1376.903953	-168.621761	567.004604	1183.273702	106.804922	741.104047	983.370279	2.451215	599.296436	1237.940700	-452.707122	744.812752	977.375131	-430.128494	36.669219	1262.269219	-153.521338	207.434660	1289.696155	-346.737814	223.991214	1253.601027	20.700144	215.571408	1213.860670	-310.885010	237.137662	1177.174887	-31.205283	72.387448	1302.881653	-103.061841	71.781309	1312.522777	-186.576481	139.877274	1144.682239	23.880442	145.770803	1220.558186	-364.529029	173.056183	990.244795	34.281425	217.312538	913.403715	27.428632	220.668466	829.247924	9.494215	251.954403	924.825156	20.191863	241.067960	708.726014	-32.525468	259.080156	699.470791	-143.855452	193.226552	545.474696	-14.823276	200.088097	457.264711	-29.746644	160.577921	378.501747	-39.638380	231.283026	454.952510	-53.490047	127.057333	251.206197	-70.950518	156.804632	266.878235	-148.773125	64.203123	219.336827	-108.820114	369.350022	156.536514	-107.938535	248.289824	161.909983	-39.620219	278.590526	177.432194	-152.548835	235.958184	1138.020438	-429.465108	313.974821	1111.403936	-457.162657	337.647433	1135.336432	-441.525849	367.001889	1044.437521	-485.237455	476.381255	962.314302	-508.221472	507.080661	935.937586	-383.833660	356.228291	837.125919	-501.862452	320.498831	764.608345	-472.017239	246.223812	718.214704	-449.619369	348.363308	745.897835	-452.502545	164.322519	626.440628	-410.952048	207.590119	636.994980	-328.272017	90.303898	610.131821	-356.113286	375.046988	495.082209	-354.670416	285.473473	523.548509	-310.811225	254.347778	509.979221	-426.946449	-211.459309	947.301978	-227.314582	-4.471209	84.164771	-432.808213	-8.781538	80.966766	-32.512511	
1753	8.7650	625.261652	1453.874769	2.203065	613.840480	1493.517531	-322.923073	557.009670	1548.281610	-149.466625	586.036573	1376.750942	-168.429233	566.705192	1183.057767	107.069103	741.029400	983.293794	2.656387	599.144160	1237.877644	-452.519748	744.824032	977.366497	-430.223572	36.108559	1262.236200	-153.500026	206.935094	1289.613659	-346.622741	223.315911	1253.346086	20.759910	215.040456	1213.754719	-310.911197	236.516577	1177.008304	-31.202309	71.195500	1302.928749	-102.599234	70.638982	1312.835711	-185.980995	139.313185	1144.512264	23.851048	145.173938	1220.486797	-364.483187	172.608177	990.106525	34.267805	216.971937	913.288349	27.440161	220.415849	829.168959	9.516835	251.635150	924.782341	20.215352	240.887196	708.650354	-32.541058	258.869707	699.464222	-143.906627	193.154716	545.387448	-14.846899	200.100735	457.188053	-29.759181	160.591219	378.374587	-39.662051	231.269683	454.872114	-53.515203	127.205290	251.024589	-71.001000	156.920701	266.774789	-148.807210	64.400102	219.106121	-108.869306	369.620947	156.690813	-107.908045	248.530637	161.910850	-39.643287	278.830400	177.432270	-152.585865	235.357971	1137.991512	-429.421068	313.373455	1111.379602	-457.171860	337.053301	1135.321763	-441.541901	366.410314	1044.453852	-485.267338	475.845598	962.362638	-508.333153	506.567753	936.020451	-383.893449	355.645694	837.195281	-501.921673	320.043396	764.633389	-472.074974	245.735388	718.196700	-449.634745	347.849664	745.928145	-452.552156	163.871035	626.389773	-410.936677	207.114942	636.976657	-328.239803	89.863074	610.036592	-356.110102	374.465763	494.968785	-353.856086	285.144003	523.560108	-310.789695	253.993741	509.993062	-426.955037	-211.461263	947.294634	-227.309434	-4.456955	84.192580	-432.846474	-8.776567	80.970337	-32.530555	
1754	8.7700	624.591950	1453.679042	2.503891	613.313942	1493.345772	-322.672435	556.366715	1548.151145	-149.197373	585.497084	1376.625605	-168.109384	566.422493	1182.841905	107.346942	740.973661	983.212061	2.871149	598.987133	1237.818909	-452.350534	744.826103	977.359343	-430.307343	35.413642	1261.985486	-153.484329	206.413092	1289.514502	-346.513065	222.641771	1253.039193	20.935663	214.450084	1213.640427	-310.754369	235.909996	1176.799237	-31.158800	71.150223	1302.548578	-102.970677	70.559435	1312.215758	-186.540730	138.724898	1144.323656	23.840925	144.620072	1220.423930	-364.456202	172.165608	989.964582	34.261570	216.600445	913.207333	27.437333	220.152769	829.061487	9.505286	251.293597	924.760354	20.211127	240.721137	708.579506	-32.555511	258.843625	699.228356	-143.590584	193.088957	545.264367	-14.857523	200.085287	457.098822	-29.784216	160.616799	378.242685	-39.665326	231.283705	454.792457	-53.535813	127.344895	250.847729	-71.057411	157.093632	266.623072	-148.869199	64.571579	218.883664	-108.879265	369.880942	156.833451	-107.871244	248.777878	161.901158	-39.619626	279.067886	177.456077	-152.593872	234.782674	1137.956946	-429.419716	312.781121	1111.392034	-457.190241	336.488088	1135.323316	-441.512325	365.847055	1044.466041	-485.329499	475.221428	962.395448	-508.396020	506.024272	936.057457	-383.934849	355.157547	837.231204	-501.968922	319.534353	764.574141	-471.999015	245.236292	718.162108	-449.643655	347.396393	745.938175	-452.640676	163.472907	626.317973	-410.901793	206.650552	636.917900	-328.215777	89.448761	609.923351	-356.126766	374.397406	495.228472	-354.624013	284.808074	523.583874	-310.765101	253.649497	509.969398	-426.968605	-211.470213	947.290946	-227.294044	-4.463444	84.154094	-432.810551	-8.775941	80.955960	-32.511706	
